<svg width="1000" height="1000" viewBox="0 0 1000 1000" fill="none" xmlns="http://www.w3.org/2000/svg">
<mask id="path-1-outside-1_206_7" maskUnits="userSpaceOnUse" x="162" y="54" width="672" height="594" fill="black">
<rect fill="white" x="162" y="54" width="672" height="594"/>
<path d="M726.232 65.1812C707.165 68.2154 687.774 75.4976 670.087 86.4207C665.462 89.1948 661.324 91.5355 660.837 91.5355C660.35 91.5355 654.184 95.1765 647.207 99.6845L634.468 107.92L607.369 112.775C592.521 115.462 558.039 121.357 530.778 125.865L481.204 134.101L350.171 137.222C257.352 139.389 218.894 140.603 218.164 141.297C217.677 141.817 213.539 149.446 208.996 158.288C204.533 167.044 200.639 174.413 200.476 174.586C200.314 174.76 197.393 175.28 193.904 175.713C190.497 176.06 187.576 176.58 187.495 176.667C187.414 176.84 184.574 185.769 181.166 196.693L175 216.372L182.87 220.359C187.17 222.527 194.878 226.254 199.908 228.769C207.292 232.41 208.996 233.623 208.996 235.097C208.996 236.051 208.103 243.853 206.967 252.435C205.831 260.931 204.939 268.733 204.939 269.774C204.939 271.074 208.347 274.455 217.271 281.911C224.006 287.546 229.847 292.487 230.253 292.747C230.74 293.094 228.549 313.987 226.602 326.99C226.359 328.551 229.036 331.151 240.963 341.034L255.648 353.258L255.162 369.556C254.837 378.485 254.594 391.142 254.512 397.557L254.431 409.347L278.61 423.825L302.869 438.303L303.356 450.179C303.68 456.681 303.924 468.471 303.924 476.36C303.924 484.249 304.248 491.184 304.573 491.791C304.897 492.311 317.311 498.64 332.159 505.749C347.007 512.857 359.42 518.926 359.745 519.273C360.069 519.619 359.745 520.4 359.014 520.92C357.879 521.873 357.716 525.775 357.392 552.649L357.067 583.338L394.389 594.261L400.231 588.019L406.154 581.864V589.146C406.154 593.221 405.748 604.837 405.343 615.067C404.694 628.504 404.694 633.792 405.343 634.226C405.829 634.573 413.781 635.093 423.03 635.44C432.28 635.7 443.882 636.22 448.75 636.48L457.675 637L467.33 622.262C472.685 614.113 477.472 607.351 478.04 607.178C478.851 606.918 611.02 432.928 615.645 425.819C619.864 419.49 633.332 401.805 639.012 395.217C642.338 391.316 645.259 387.328 645.503 386.374C645.746 385.421 663.758 360.453 685.583 330.805L725.258 277.056L739.133 269.167C746.759 264.832 754.143 260.238 755.441 258.937C756.82 257.637 761.445 254.343 765.826 251.568C788.868 237.091 807.124 217.845 816.13 198.513C822.053 185.856 824 176.147 824 158.982C824 147.798 823.838 146.238 821.566 139.043C814.832 117.456 798.524 92.5758 783.108 80.0922C769.883 69.4291 758.767 65.528 740.431 65.0945C733.94 64.9211 727.611 65.0078 726.232 65.1812ZM746.516 68.1287C756.252 69.2557 762.256 70.9896 770.045 74.9774C785.785 82.953 802.986 103.239 813.534 126.126C820.268 140.95 821.16 144.678 821.16 159.589C821.16 174.326 819.781 182.128 815.562 192.965C807.286 213.771 787.084 235.531 761.445 250.962C756.577 253.822 755.846 253.649 755.846 249.315C755.846 243.506 747.49 222.353 737.834 203.801C730.451 189.671 694.346 125.172 688.991 116.416C682.581 106.186 675.847 97.864 671.304 94.483C666.841 91.2754 666.598 91.6222 676.334 86.0739C690.452 77.9249 709.113 71.0762 722.581 69.0823C734.751 67.1751 737.429 67.0884 746.516 68.1287ZM643.718 115.029C649.316 117.89 660.513 128.813 659.945 130.72C659.782 131.24 657.105 132.627 653.941 133.754C648.586 135.748 605.99 149.792 597.065 152.566L592.765 153.867L586.923 146.325C583.759 142.163 578.242 135.315 574.672 131.154C571.102 126.992 568.424 123.265 568.749 123.005C568.992 122.745 582.623 120.057 599.012 117.023C633.17 110.868 635.604 110.694 643.718 115.029ZM572.968 133.321C606.882 174.326 636.334 223.22 659.133 276.189C666.192 292.66 675.117 315.807 678.93 327.51L680.796 333.405L679.011 335.313C677.227 337.133 677.227 337.133 676.659 335.486C676.334 334.619 673.9 327.944 671.223 320.835C644.529 249.488 608.343 185.596 565.666 134.535C559.418 126.992 558.688 125.779 559.986 125.259C564.205 123.525 565.422 124.218 572.968 133.321ZM562.907 135.488C573.536 148.319 579.783 156.468 579.783 157.335C579.783 157.681 571.183 160.629 560.716 163.923L541.569 169.818L534.997 162.103C531.346 157.855 523.8 149.446 518.283 143.377L508.222 132.454L512.116 131.847C514.307 131.5 523.557 129.94 532.725 128.379C541.893 126.819 550.493 125.519 551.954 125.432C554.226 125.345 555.362 126.386 562.907 135.488ZM516.985 146.325C556.092 188.543 584.408 231.109 608.262 283.471C621.081 311.646 632.846 345.456 640.067 374.671L642.906 386.027L640.229 389.408C638.768 391.229 637.389 392.616 637.146 392.356C636.983 392.096 636.01 388.975 635.036 385.421C616.132 316.327 586.112 251.135 548.546 197.733C536.132 180.048 526.964 168.431 511.386 150.659C504.165 142.337 498.161 135.228 497.999 134.881C497.837 134.448 498.973 134.014 500.433 133.754C501.893 133.581 503.516 133.321 503.922 133.321C504.409 133.234 510.25 139.129 516.985 146.325ZM666.273 139.823C671.385 148.752 675.523 157.074 675.523 158.201C675.523 158.808 670.898 161.669 665.218 164.53C648.18 173.199 617.754 187.763 616.7 187.763C616.213 187.763 613.941 184.903 611.75 181.522C609.56 178.054 604.935 171.205 601.527 166.264C598.039 161.409 595.199 157.074 595.199 156.728C595.199 156.381 604.773 153.087 616.537 149.272C628.221 145.544 642.906 140.603 649.154 138.349C655.401 136.182 661.081 134.275 661.73 134.188C662.46 134.101 664.326 136.442 666.273 139.823ZM462.949 139.736C459.622 140.863 412.32 150.573 357.879 161.322C303.437 172.072 258.164 181.001 257.19 181.261C256.297 181.435 251.592 186.896 246.642 193.398C241.774 199.813 237.474 205.102 237.15 205.102C236.5 205.102 199.341 186.203 198.529 185.509C198.367 185.336 203.073 175.887 208.914 164.443L219.624 143.637L224.655 143.204C230.091 142.684 440.15 137.742 458.08 137.656H469.034L462.949 139.736ZM491.914 142.77C501.082 145.458 501.163 145.544 500.676 147.798C500.433 149.099 498.486 156.728 496.376 164.877L492.482 179.528L487.208 180.048C484.368 180.308 443.476 191.404 396.418 204.668C349.359 217.932 300.759 231.543 288.508 235.01C267.737 240.819 266.196 241.339 265.79 243.333C265.466 244.807 264.492 245.587 262.464 246.194C259.705 246.887 259.462 246.8 254.756 241.426C245.669 231.196 233.742 217.152 233.498 216.372C233.255 215.765 256.379 184.556 257.19 184.296C258.65 183.776 479.419 140.17 480.717 140.17C481.772 140.083 486.802 141.297 491.914 142.77ZM514.226 158.028C524.287 169.818 527.451 173.806 526.964 174.239C524.936 175.973 496.944 180.134 495.808 178.921C495.403 178.487 503.76 147.018 504.328 147.018C504.571 147.018 509.033 151.96 514.226 158.028ZM590.169 171.119C601.69 187.503 605.179 193.052 604.448 193.745C603.312 194.785 570.858 209.783 570.615 209.35C570.453 209.176 567.451 204.928 563.962 199.9C560.473 194.872 554.55 186.723 550.737 181.868C547.005 176.927 544.165 172.592 544.489 172.332C545.301 171.465 581.73 160.282 582.461 160.629C582.785 160.889 586.274 165.57 590.169 171.119ZM681.202 168.865C683.149 172.852 687.206 180.395 690.208 185.683C693.21 191.058 696.05 196.172 696.537 197.126C697.348 198.86 695.725 200.334 675.36 216.632C649.641 237.091 645.584 240.212 645.259 239.692C645.097 239.518 643.393 236.224 641.446 232.41C636.659 222.96 626.598 205.188 621.73 197.473C619.539 193.918 617.917 190.971 618.079 190.798C618.16 190.711 626.355 186.723 636.172 182.042C645.989 177.274 658.971 170.858 664.975 167.651C670.979 164.53 676.334 161.843 676.821 161.843C677.226 161.756 679.255 164.963 681.202 168.865ZM546.193 199.293C552.197 207.789 557.065 215.071 557.065 215.418C557.065 215.765 551.954 218.452 545.706 221.4L534.266 226.688L519.905 224.867C512.035 223.914 505.382 222.96 505.22 222.787C504.977 222.613 507.573 212.991 510.899 201.461L516.903 180.481L522.989 178.574L529.074 176.58L532.238 180.221C533.942 182.215 540.27 190.798 546.193 199.293ZM198.448 178.574C198.448 178.747 197.556 180.655 196.42 182.735L194.391 186.636L214.351 196.866C225.304 202.588 234.472 207.529 234.634 207.876C234.878 208.309 233.742 210.303 232.119 212.384L229.198 216.285L232.525 220.186C234.878 222.96 235.608 224.261 234.878 224.521C234.229 224.781 228.63 226.341 222.464 228.075L211.186 231.196L204.209 227.728C200.395 225.821 192.931 222.18 187.738 219.492L178.245 214.724L183.763 197.126C189.036 180.221 189.361 179.528 191.633 179.007C194.391 178.314 198.448 178.054 198.448 178.574ZM511.954 187.677C510.899 191.404 508.222 200.68 506.112 208.223L502.137 222.007L498.161 221.92C494.754 221.833 487.046 224.867 443.882 243.246C400.393 261.798 296.297 303.063 292.97 303.063C292.159 303.063 270.739 285.812 264.249 280.003C263.681 279.483 268.387 244.113 269.036 243.68C269.36 243.419 317.636 229.809 376.215 213.251C479.176 184.296 483.232 183.255 494.591 182.215C501.082 181.522 508.06 181.001 510.169 180.915L513.901 180.828L511.954 187.677ZM613.698 207.009C621.243 219.579 635.766 245.934 635.766 247.147C635.685 247.581 634.144 249.141 632.278 250.528C630.412 251.915 623.677 257.117 617.349 261.971L605.828 270.901L602.826 265.092C595.442 250.788 587.085 235.791 580.108 224.434L572.562 212.037L576.376 210.303C578.485 209.263 585.868 205.795 592.765 202.501C599.661 199.293 605.746 196.519 606.233 196.519C606.801 196.433 610.128 201.201 613.698 207.009ZM702.541 208.309C704.488 212.037 707.814 218.539 710.005 222.7L713.9 230.416L709.924 234.75C707.733 237.178 696.456 248.274 684.934 259.457L663.92 279.743L655.482 261.365C650.939 251.222 647.125 242.899 647.125 242.813C647.125 242.639 655.077 236.311 664.813 228.682C674.468 221.053 685.908 211.95 690.127 208.309C694.346 204.668 698.078 201.721 698.403 201.721C698.646 201.634 700.512 204.668 702.541 208.309ZM566.315 229.982C573.374 241.599 582.298 257.81 589.357 271.941L593.576 280.263L582.704 288.499L571.832 296.822L552.927 290.84C542.461 287.546 532.644 284.425 531.021 283.991L528.1 283.124L532.319 256.25C534.591 241.426 536.7 229.115 536.944 228.855C537.755 227.988 557.39 218.972 558.526 218.972C559.094 218.972 562.583 223.914 566.315 229.982ZM515.605 227.295C525.26 228.508 533.293 229.635 533.455 229.809C533.942 230.416 525.991 279.223 525.098 280.35C524.611 281.13 523.475 281.39 522.096 281.044C520.23 280.697 511.711 285.638 472.117 310.345C433.091 334.706 346.763 386.461 343.761 387.328C343.355 387.501 332.564 381.346 319.745 373.717L296.459 359.846L296.784 334.532C296.946 320.575 297.271 309.045 297.514 308.872C298.974 307.485 493.861 225.128 495.727 225.128C497.025 225.041 505.95 226.081 515.605 227.295ZM248.671 238.651C254.107 244.98 258.894 250.181 259.218 250.181C259.462 250.181 260.922 249.835 262.383 249.401C264.249 248.794 264.979 248.881 264.979 249.575C264.979 250.181 264.086 257.464 262.95 265.786C261.084 279.83 261.084 281.044 262.301 281.997C263.032 282.604 263.518 283.211 263.275 283.384C262.707 283.991 237.312 293.527 236.5 293.527C236.014 293.527 229.279 288.239 221.49 281.737C207.697 270.207 207.373 269.86 207.779 267.173C208.022 265.699 209.077 257.724 210.132 249.488C211.186 241.252 212.241 234.317 212.403 234.143C213.052 233.45 236.176 226.948 237.393 227.035C238.042 227.121 243.154 232.41 248.671 238.651ZM717.713 239.518C722.094 249.748 725.096 259.978 725.583 265.786L725.989 271.421L704.731 300.203C692.967 316.067 683.149 329.071 682.825 329.071C682.581 329.071 680.715 324.476 678.768 318.841C676.821 313.293 672.926 302.89 670.168 295.695L664.975 282.691L667.247 280.437C668.464 279.223 676.74 271.248 685.665 262.665C694.508 254.169 704.731 244.113 708.382 240.472C711.952 236.744 714.954 233.797 715.036 233.71C715.198 233.71 716.415 236.311 717.713 239.518ZM647.207 270.554C654.833 286.939 655.158 287.892 653.86 289.193C647.207 295.781 625.057 316.241 624.894 315.98C624.732 315.807 623.434 312.513 621.973 308.698C620.513 304.884 616.619 295.434 613.211 287.632C607.369 274.108 607.207 273.415 608.667 272.374C609.479 271.681 616.213 266.479 623.596 260.758C635.685 251.308 637.065 250.441 638.119 251.742C638.687 252.522 642.825 261.018 647.207 270.554ZM601.446 298.035C605.016 306.271 609.154 316.241 610.615 320.055L613.292 327.077L609.803 330.458C607.937 332.278 605.746 334.272 605.016 334.879C603.556 336.093 567.613 336.526 567.613 335.313C567.613 334.966 569.317 326.383 571.345 316.24L575.159 297.862L584.57 290.58C589.763 286.505 594.225 283.211 594.469 283.211C594.793 283.124 597.876 289.886 601.446 298.035ZM546.437 291.793C559.986 296.128 571.264 299.769 571.507 300.029C571.832 300.289 567.126 324.129 565.098 332.712L564.286 336.006H544.976L478.608 401.285C442.097 437.175 410.941 467.518 409.399 468.818L406.56 471.159L379.055 457.982C359.096 448.445 351.388 444.284 350.982 443.071C350.658 442.117 350.171 429.807 349.927 415.763L349.522 390.189L434.389 337.133C481.123 308.005 519.905 284.078 520.555 284.078C521.204 283.991 532.887 287.546 546.437 291.793ZM279.34 296.215C292.24 307.051 291.916 306.878 297.19 305.144C298.001 304.884 297.676 305.317 296.459 306.098L294.188 307.485V337.567L285.912 340.774C281.287 342.508 273.174 345.629 267.737 347.71L257.92 351.437L243.803 339.734C236.014 333.319 229.604 327.944 229.442 327.77C229.198 327.51 232.038 304.104 233.012 298.122C233.417 295.868 233.742 295.521 234.878 296.215C235.851 296.908 239.665 295.695 250.375 291.533C258.164 288.412 265.06 285.898 265.709 285.812C266.277 285.725 272.443 290.406 279.34 296.215ZM659.701 298.729C666.517 315.287 675.36 339.907 674.792 340.774C658.647 362.707 645.746 379.959 645.178 380.219C644.772 380.479 642.744 374.237 640.635 366.348C636.416 350.31 632.764 338.434 628.708 326.99C627.247 322.742 626.274 318.928 626.598 318.668C633.414 311.993 656.294 290.927 656.456 291.1C656.537 291.273 657.997 294.654 659.701 298.729ZM617.268 337.74C620.675 347.276 628.789 373.024 632.034 384.727L634.793 394.957L627.085 405.446C622.866 411.168 619.215 415.676 618.971 415.503C618.809 415.242 620.432 408.914 622.785 401.459C625.057 393.916 626.76 387.588 626.517 387.414C626.355 387.241 619.702 386.461 611.832 385.854C603.88 385.16 597.308 384.467 597.146 384.294C597.065 384.207 599.093 373.63 601.69 360.8L606.396 337.48L609.965 334.186C611.832 332.365 613.779 330.978 614.185 331.065C614.59 331.238 615.97 334.186 617.268 337.74ZM603.069 340.254C602.907 341.121 600.716 351.524 598.363 363.314L594.063 384.814L516.822 462.49C474.308 505.228 439.501 540.685 439.501 541.206C439.419 541.812 439.176 542.333 438.851 542.333C438.446 542.419 430.981 540.339 422.057 537.825L405.911 533.23L406.479 515.111C406.722 505.142 406.965 492.138 406.965 486.33V475.667L544.976 339.907L562.177 339.474C601.771 338.347 603.556 338.434 603.069 340.254ZM294.188 351.871V361.754L317.96 375.971C335.648 386.634 342.301 390.189 344.329 390.102L346.925 390.015V398.771L346.844 407.527L325.343 420.964C313.417 428.333 303.437 434.488 303.112 434.661C302.788 434.748 292.565 428.853 280.313 421.484L258.082 408.134V356.639L275.121 349.443C284.532 345.456 292.646 342.161 293.214 342.161C293.944 342.075 294.188 344.589 294.188 351.871ZM608.83 388.541C614.266 388.802 619.783 389.322 621 389.668L623.272 390.189L612.562 425.732L545.382 514.591C508.384 563.485 477.715 603.537 477.228 603.624C476.742 603.71 468.304 601.543 458.486 598.856L440.636 593.827L440.961 578.31C441.042 569.727 441.448 557.937 441.772 552.215L442.259 541.639L518.932 464.397C577.998 404.84 596.01 387.241 597.227 387.501C598.12 387.761 603.312 388.195 608.83 388.541ZM347.006 412.035C347.088 412.468 347.331 420.271 347.656 429.547L348.142 446.365L376.377 459.889L404.531 473.326V479.915C404.531 485.203 404.207 486.85 403.152 487.89C402.341 488.67 392.929 495.606 382.3 503.321L362.909 517.279L307.413 490.751L306.845 479.048C306.601 472.632 306.277 460.409 306.196 451.826L305.952 436.309L325.83 423.912C336.783 417.063 345.952 411.428 346.357 411.428C346.682 411.428 347.006 411.688 347.006 412.035ZM407.614 536.524C409.724 537.218 417.432 539.472 424.734 541.552L438.04 545.367L424.734 559.064C417.432 566.606 407.371 576.923 402.422 581.864L393.335 590.88L377.027 586.112C368.021 583.511 360.475 581.344 360.313 581.344C360.069 581.344 359.907 568.774 359.907 553.342C359.907 532.883 360.232 524.908 360.962 523.434C361.449 522.307 371.266 514.678 382.625 506.442L403.314 491.531L403.558 513.464L403.72 535.311L407.614 536.524ZM438.284 570.681C437.959 581.604 437.553 591.66 437.31 593.134L436.823 595.821L455.403 600.85C465.545 603.624 473.983 606.051 474.145 606.138C474.308 606.224 470.332 612.64 465.22 620.355L456.052 634.313L453.212 633.879C451.671 633.619 443.071 633.186 434.146 632.925C425.221 632.665 415.566 632.232 412.726 631.885L407.533 631.365L408.182 612.206C408.507 601.716 408.994 590.013 409.237 586.372L409.805 579.697L424.004 565.306C431.793 557.417 438.365 551.002 438.527 551.002C438.689 551.002 438.608 559.844 438.284 570.681Z"/>
</mask>
<path d="M726.232 65.1812C707.165 68.2154 687.774 75.4976 670.087 86.4207C665.462 89.1948 661.324 91.5355 660.837 91.5355C660.35 91.5355 654.184 95.1765 647.207 99.6845L634.468 107.92L607.369 112.775C592.521 115.462 558.039 121.357 530.778 125.865L481.204 134.101L350.171 137.222C257.352 139.389 218.894 140.603 218.164 141.297C217.677 141.817 213.539 149.446 208.996 158.288C204.533 167.044 200.639 174.413 200.476 174.586C200.314 174.76 197.393 175.28 193.904 175.713C190.497 176.06 187.576 176.58 187.495 176.667C187.414 176.84 184.574 185.769 181.166 196.693L175 216.372L182.87 220.359C187.17 222.527 194.878 226.254 199.908 228.769C207.292 232.41 208.996 233.623 208.996 235.097C208.996 236.051 208.103 243.853 206.967 252.435C205.831 260.931 204.939 268.733 204.939 269.774C204.939 271.074 208.347 274.455 217.271 281.911C224.006 287.546 229.847 292.487 230.253 292.747C230.74 293.094 228.549 313.987 226.602 326.99C226.359 328.551 229.036 331.151 240.963 341.034L255.648 353.258L255.162 369.556C254.837 378.485 254.594 391.142 254.512 397.557L254.431 409.347L278.61 423.825L302.869 438.303L303.356 450.179C303.68 456.681 303.924 468.471 303.924 476.36C303.924 484.249 304.248 491.184 304.573 491.791C304.897 492.311 317.311 498.64 332.159 505.749C347.007 512.857 359.42 518.926 359.745 519.273C360.069 519.619 359.745 520.4 359.014 520.92C357.879 521.873 357.716 525.775 357.392 552.649L357.067 583.338L394.389 594.261L400.231 588.019L406.154 581.864V589.146C406.154 593.221 405.748 604.837 405.343 615.067C404.694 628.504 404.694 633.792 405.343 634.226C405.829 634.573 413.781 635.093 423.03 635.44C432.28 635.7 443.882 636.22 448.75 636.48L457.675 637L467.33 622.262C472.685 614.113 477.472 607.351 478.04 607.178C478.851 606.918 611.02 432.928 615.645 425.819C619.864 419.49 633.332 401.805 639.012 395.217C642.338 391.316 645.259 387.328 645.503 386.374C645.746 385.421 663.758 360.453 685.583 330.805L725.258 277.056L739.133 269.167C746.759 264.832 754.143 260.238 755.441 258.937C756.82 257.637 761.445 254.343 765.826 251.568C788.868 237.091 807.124 217.845 816.13 198.513C822.053 185.856 824 176.147 824 158.982C824 147.798 823.838 146.238 821.566 139.043C814.832 117.456 798.524 92.5758 783.108 80.0922C769.883 69.4291 758.767 65.528 740.431 65.0945C733.94 64.9211 727.611 65.0078 726.232 65.1812ZM746.516 68.1287C756.252 69.2557 762.256 70.9896 770.045 74.9774C785.785 82.953 802.986 103.239 813.534 126.126C820.268 140.95 821.16 144.678 821.16 159.589C821.16 174.326 819.781 182.128 815.562 192.965C807.286 213.771 787.084 235.531 761.445 250.962C756.577 253.822 755.846 253.649 755.846 249.315C755.846 243.506 747.49 222.353 737.834 203.801C730.451 189.671 694.346 125.172 688.991 116.416C682.581 106.186 675.847 97.864 671.304 94.483C666.841 91.2754 666.598 91.6222 676.334 86.0739C690.452 77.9249 709.113 71.0762 722.581 69.0823C734.751 67.1751 737.429 67.0884 746.516 68.1287ZM643.718 115.029C649.316 117.89 660.513 128.813 659.945 130.72C659.782 131.24 657.105 132.627 653.941 133.754C648.586 135.748 605.99 149.792 597.065 152.566L592.765 153.867L586.923 146.325C583.759 142.163 578.242 135.315 574.672 131.154C571.102 126.992 568.424 123.265 568.749 123.005C568.992 122.745 582.623 120.057 599.012 117.023C633.17 110.868 635.604 110.694 643.718 115.029ZM572.968 133.321C606.882 174.326 636.334 223.22 659.133 276.189C666.192 292.66 675.117 315.807 678.93 327.51L680.796 333.405L679.011 335.313C677.227 337.133 677.227 337.133 676.659 335.486C676.334 334.619 673.9 327.944 671.223 320.835C644.529 249.488 608.343 185.596 565.666 134.535C559.418 126.992 558.688 125.779 559.986 125.259C564.205 123.525 565.422 124.218 572.968 133.321ZM562.907 135.488C573.536 148.319 579.783 156.468 579.783 157.335C579.783 157.681 571.183 160.629 560.716 163.923L541.569 169.818L534.997 162.103C531.346 157.855 523.8 149.446 518.283 143.377L508.222 132.454L512.116 131.847C514.307 131.5 523.557 129.94 532.725 128.379C541.893 126.819 550.493 125.519 551.954 125.432C554.226 125.345 555.362 126.386 562.907 135.488ZM516.985 146.325C556.092 188.543 584.408 231.109 608.262 283.471C621.081 311.646 632.846 345.456 640.067 374.671L642.906 386.027L640.229 389.408C638.768 391.229 637.389 392.616 637.146 392.356C636.983 392.096 636.01 388.975 635.036 385.421C616.132 316.327 586.112 251.135 548.546 197.733C536.132 180.048 526.964 168.431 511.386 150.659C504.165 142.337 498.161 135.228 497.999 134.881C497.837 134.448 498.973 134.014 500.433 133.754C501.893 133.581 503.516 133.321 503.922 133.321C504.409 133.234 510.25 139.129 516.985 146.325ZM666.273 139.823C671.385 148.752 675.523 157.074 675.523 158.201C675.523 158.808 670.898 161.669 665.218 164.53C648.18 173.199 617.754 187.763 616.7 187.763C616.213 187.763 613.941 184.903 611.75 181.522C609.56 178.054 604.935 171.205 601.527 166.264C598.039 161.409 595.199 157.074 595.199 156.728C595.199 156.381 604.773 153.087 616.537 149.272C628.221 145.544 642.906 140.603 649.154 138.349C655.401 136.182 661.081 134.275 661.73 134.188C662.46 134.101 664.326 136.442 666.273 139.823ZM462.949 139.736C459.622 140.863 412.32 150.573 357.879 161.322C303.437 172.072 258.164 181.001 257.19 181.261C256.297 181.435 251.592 186.896 246.642 193.398C241.774 199.813 237.474 205.102 237.15 205.102C236.5 205.102 199.341 186.203 198.529 185.509C198.367 185.336 203.073 175.887 208.914 164.443L219.624 143.637L224.655 143.204C230.091 142.684 440.15 137.742 458.08 137.656H469.034L462.949 139.736ZM491.914 142.77C501.082 145.458 501.163 145.544 500.676 147.798C500.433 149.099 498.486 156.728 496.376 164.877L492.482 179.528L487.208 180.048C484.368 180.308 443.476 191.404 396.418 204.668C349.359 217.932 300.759 231.543 288.508 235.01C267.737 240.819 266.196 241.339 265.79 243.333C265.466 244.807 264.492 245.587 262.464 246.194C259.705 246.887 259.462 246.8 254.756 241.426C245.669 231.196 233.742 217.152 233.498 216.372C233.255 215.765 256.379 184.556 257.19 184.296C258.65 183.776 479.419 140.17 480.717 140.17C481.772 140.083 486.802 141.297 491.914 142.77ZM514.226 158.028C524.287 169.818 527.451 173.806 526.964 174.239C524.936 175.973 496.944 180.134 495.808 178.921C495.403 178.487 503.76 147.018 504.328 147.018C504.571 147.018 509.033 151.96 514.226 158.028ZM590.169 171.119C601.69 187.503 605.179 193.052 604.448 193.745C603.312 194.785 570.858 209.783 570.615 209.35C570.453 209.176 567.451 204.928 563.962 199.9C560.473 194.872 554.55 186.723 550.737 181.868C547.005 176.927 544.165 172.592 544.489 172.332C545.301 171.465 581.73 160.282 582.461 160.629C582.785 160.889 586.274 165.57 590.169 171.119ZM681.202 168.865C683.149 172.852 687.206 180.395 690.208 185.683C693.21 191.058 696.05 196.172 696.537 197.126C697.348 198.86 695.725 200.334 675.36 216.632C649.641 237.091 645.584 240.212 645.259 239.692C645.097 239.518 643.393 236.224 641.446 232.41C636.659 222.96 626.598 205.188 621.73 197.473C619.539 193.918 617.917 190.971 618.079 190.798C618.16 190.711 626.355 186.723 636.172 182.042C645.989 177.274 658.971 170.858 664.975 167.651C670.979 164.53 676.334 161.843 676.821 161.843C677.226 161.756 679.255 164.963 681.202 168.865ZM546.193 199.293C552.197 207.789 557.065 215.071 557.065 215.418C557.065 215.765 551.954 218.452 545.706 221.4L534.266 226.688L519.905 224.867C512.035 223.914 505.382 222.96 505.22 222.787C504.977 222.613 507.573 212.991 510.899 201.461L516.903 180.481L522.989 178.574L529.074 176.58L532.238 180.221C533.942 182.215 540.27 190.798 546.193 199.293ZM198.448 178.574C198.448 178.747 197.556 180.655 196.42 182.735L194.391 186.636L214.351 196.866C225.304 202.588 234.472 207.529 234.634 207.876C234.878 208.309 233.742 210.303 232.119 212.384L229.198 216.285L232.525 220.186C234.878 222.96 235.608 224.261 234.878 224.521C234.229 224.781 228.63 226.341 222.464 228.075L211.186 231.196L204.209 227.728C200.395 225.821 192.931 222.18 187.738 219.492L178.245 214.724L183.763 197.126C189.036 180.221 189.361 179.528 191.633 179.007C194.391 178.314 198.448 178.054 198.448 178.574ZM511.954 187.677C510.899 191.404 508.222 200.68 506.112 208.223L502.137 222.007L498.161 221.92C494.754 221.833 487.046 224.867 443.882 243.246C400.393 261.798 296.297 303.063 292.97 303.063C292.159 303.063 270.739 285.812 264.249 280.003C263.681 279.483 268.387 244.113 269.036 243.68C269.36 243.419 317.636 229.809 376.215 213.251C479.176 184.296 483.232 183.255 494.591 182.215C501.082 181.522 508.06 181.001 510.169 180.915L513.901 180.828L511.954 187.677ZM613.698 207.009C621.243 219.579 635.766 245.934 635.766 247.147C635.685 247.581 634.144 249.141 632.278 250.528C630.412 251.915 623.677 257.117 617.349 261.971L605.828 270.901L602.826 265.092C595.442 250.788 587.085 235.791 580.108 224.434L572.562 212.037L576.376 210.303C578.485 209.263 585.868 205.795 592.765 202.501C599.661 199.293 605.746 196.519 606.233 196.519C606.801 196.433 610.128 201.201 613.698 207.009ZM702.541 208.309C704.488 212.037 707.814 218.539 710.005 222.7L713.9 230.416L709.924 234.75C707.733 237.178 696.456 248.274 684.934 259.457L663.92 279.743L655.482 261.365C650.939 251.222 647.125 242.899 647.125 242.813C647.125 242.639 655.077 236.311 664.813 228.682C674.468 221.053 685.908 211.95 690.127 208.309C694.346 204.668 698.078 201.721 698.403 201.721C698.646 201.634 700.512 204.668 702.541 208.309ZM566.315 229.982C573.374 241.599 582.298 257.81 589.357 271.941L593.576 280.263L582.704 288.499L571.832 296.822L552.927 290.84C542.461 287.546 532.644 284.425 531.021 283.991L528.1 283.124L532.319 256.25C534.591 241.426 536.7 229.115 536.944 228.855C537.755 227.988 557.39 218.972 558.526 218.972C559.094 218.972 562.583 223.914 566.315 229.982ZM515.605 227.295C525.26 228.508 533.293 229.635 533.455 229.809C533.942 230.416 525.991 279.223 525.098 280.35C524.611 281.13 523.475 281.39 522.096 281.044C520.23 280.697 511.711 285.638 472.117 310.345C433.091 334.706 346.763 386.461 343.761 387.328C343.355 387.501 332.564 381.346 319.745 373.717L296.459 359.846L296.784 334.532C296.946 320.575 297.271 309.045 297.514 308.872C298.974 307.485 493.861 225.128 495.727 225.128C497.025 225.041 505.95 226.081 515.605 227.295ZM248.671 238.651C254.107 244.98 258.894 250.181 259.218 250.181C259.462 250.181 260.922 249.835 262.383 249.401C264.249 248.794 264.979 248.881 264.979 249.575C264.979 250.181 264.086 257.464 262.95 265.786C261.084 279.83 261.084 281.044 262.301 281.997C263.032 282.604 263.518 283.211 263.275 283.384C262.707 283.991 237.312 293.527 236.5 293.527C236.014 293.527 229.279 288.239 221.49 281.737C207.697 270.207 207.373 269.86 207.779 267.173C208.022 265.699 209.077 257.724 210.132 249.488C211.186 241.252 212.241 234.317 212.403 234.143C213.052 233.45 236.176 226.948 237.393 227.035C238.042 227.121 243.154 232.41 248.671 238.651ZM717.713 239.518C722.094 249.748 725.096 259.978 725.583 265.786L725.989 271.421L704.731 300.203C692.967 316.067 683.149 329.071 682.825 329.071C682.581 329.071 680.715 324.476 678.768 318.841C676.821 313.293 672.926 302.89 670.168 295.695L664.975 282.691L667.247 280.437C668.464 279.223 676.74 271.248 685.665 262.665C694.508 254.169 704.731 244.113 708.382 240.472C711.952 236.744 714.954 233.797 715.036 233.71C715.198 233.71 716.415 236.311 717.713 239.518ZM647.207 270.554C654.833 286.939 655.158 287.892 653.86 289.193C647.207 295.781 625.057 316.241 624.894 315.98C624.732 315.807 623.434 312.513 621.973 308.698C620.513 304.884 616.619 295.434 613.211 287.632C607.369 274.108 607.207 273.415 608.667 272.374C609.479 271.681 616.213 266.479 623.596 260.758C635.685 251.308 637.065 250.441 638.119 251.742C638.687 252.522 642.825 261.018 647.207 270.554ZM601.446 298.035C605.016 306.271 609.154 316.241 610.615 320.055L613.292 327.077L609.803 330.458C607.937 332.278 605.746 334.272 605.016 334.879C603.556 336.093 567.613 336.526 567.613 335.313C567.613 334.966 569.317 326.383 571.345 316.24L575.159 297.862L584.57 290.58C589.763 286.505 594.225 283.211 594.469 283.211C594.793 283.124 597.876 289.886 601.446 298.035ZM546.437 291.793C559.986 296.128 571.264 299.769 571.507 300.029C571.832 300.289 567.126 324.129 565.098 332.712L564.286 336.006H544.976L478.608 401.285C442.097 437.175 410.941 467.518 409.399 468.818L406.56 471.159L379.055 457.982C359.096 448.445 351.388 444.284 350.982 443.071C350.658 442.117 350.171 429.807 349.927 415.763L349.522 390.189L434.389 337.133C481.123 308.005 519.905 284.078 520.555 284.078C521.204 283.991 532.887 287.546 546.437 291.793ZM279.34 296.215C292.24 307.051 291.916 306.878 297.19 305.144C298.001 304.884 297.676 305.317 296.459 306.098L294.188 307.485V337.567L285.912 340.774C281.287 342.508 273.174 345.629 267.737 347.71L257.92 351.437L243.803 339.734C236.014 333.319 229.604 327.944 229.442 327.77C229.198 327.51 232.038 304.104 233.012 298.122C233.417 295.868 233.742 295.521 234.878 296.215C235.851 296.908 239.665 295.695 250.375 291.533C258.164 288.412 265.06 285.898 265.709 285.812C266.277 285.725 272.443 290.406 279.34 296.215ZM659.701 298.729C666.517 315.287 675.36 339.907 674.792 340.774C658.647 362.707 645.746 379.959 645.178 380.219C644.772 380.479 642.744 374.237 640.635 366.348C636.416 350.31 632.764 338.434 628.708 326.99C627.247 322.742 626.274 318.928 626.598 318.668C633.414 311.993 656.294 290.927 656.456 291.1C656.537 291.273 657.997 294.654 659.701 298.729ZM617.268 337.74C620.675 347.276 628.789 373.024 632.034 384.727L634.793 394.957L627.085 405.446C622.866 411.168 619.215 415.676 618.971 415.503C618.809 415.242 620.432 408.914 622.785 401.459C625.057 393.916 626.76 387.588 626.517 387.414C626.355 387.241 619.702 386.461 611.832 385.854C603.88 385.16 597.308 384.467 597.146 384.294C597.065 384.207 599.093 373.63 601.69 360.8L606.396 337.48L609.965 334.186C611.832 332.365 613.779 330.978 614.185 331.065C614.59 331.238 615.97 334.186 617.268 337.74ZM603.069 340.254C602.907 341.121 600.716 351.524 598.363 363.314L594.063 384.814L516.822 462.49C474.308 505.228 439.501 540.685 439.501 541.206C439.419 541.812 439.176 542.333 438.851 542.333C438.446 542.419 430.981 540.339 422.057 537.825L405.911 533.23L406.479 515.111C406.722 505.142 406.965 492.138 406.965 486.33V475.667L544.976 339.907L562.177 339.474C601.771 338.347 603.556 338.434 603.069 340.254ZM294.188 351.871V361.754L317.96 375.971C335.648 386.634 342.301 390.189 344.329 390.102L346.925 390.015V398.771L346.844 407.527L325.343 420.964C313.417 428.333 303.437 434.488 303.112 434.661C302.788 434.748 292.565 428.853 280.313 421.484L258.082 408.134V356.639L275.121 349.443C284.532 345.456 292.646 342.161 293.214 342.161C293.944 342.075 294.188 344.589 294.188 351.871ZM608.83 388.541C614.266 388.802 619.783 389.322 621 389.668L623.272 390.189L612.562 425.732L545.382 514.591C508.384 563.485 477.715 603.537 477.228 603.624C476.742 603.71 468.304 601.543 458.486 598.856L440.636 593.827L440.961 578.31C441.042 569.727 441.448 557.937 441.772 552.215L442.259 541.639L518.932 464.397C577.998 404.84 596.01 387.241 597.227 387.501C598.12 387.761 603.312 388.195 608.83 388.541ZM347.006 412.035C347.088 412.468 347.331 420.271 347.656 429.547L348.142 446.365L376.377 459.889L404.531 473.326V479.915C404.531 485.203 404.207 486.85 403.152 487.89C402.341 488.67 392.929 495.606 382.3 503.321L362.909 517.279L307.413 490.751L306.845 479.048C306.601 472.632 306.277 460.409 306.196 451.826L305.952 436.309L325.83 423.912C336.783 417.063 345.952 411.428 346.357 411.428C346.682 411.428 347.006 411.688 347.006 412.035ZM407.614 536.524C409.724 537.218 417.432 539.472 424.734 541.552L438.04 545.367L424.734 559.064C417.432 566.606 407.371 576.923 402.422 581.864L393.335 590.88L377.027 586.112C368.021 583.511 360.475 581.344 360.313 581.344C360.069 581.344 359.907 568.774 359.907 553.342C359.907 532.883 360.232 524.908 360.962 523.434C361.449 522.307 371.266 514.678 382.625 506.442L403.314 491.531L403.558 513.464L403.72 535.311L407.614 536.524ZM438.284 570.681C437.959 581.604 437.553 591.66 437.31 593.134L436.823 595.821L455.403 600.85C465.545 603.624 473.983 606.051 474.145 606.138C474.308 606.224 470.332 612.64 465.22 620.355L456.052 634.313L453.212 633.879C451.671 633.619 443.071 633.186 434.146 632.925C425.221 632.665 415.566 632.232 412.726 631.885L407.533 631.365L408.182 612.206C408.507 601.716 408.994 590.013 409.237 586.372L409.805 579.697L424.004 565.306C431.793 557.417 438.365 551.002 438.527 551.002C438.689 551.002 438.608 559.844 438.284 570.681Z" fill="#009806"/>
<path d="M726.232 65.1812C707.165 68.2154 687.774 75.4976 670.087 86.4207C665.462 89.1948 661.324 91.5355 660.837 91.5355C660.35 91.5355 654.184 95.1765 647.207 99.6845L634.468 107.92L607.369 112.775C592.521 115.462 558.039 121.357 530.778 125.865L481.204 134.101L350.171 137.222C257.352 139.389 218.894 140.603 218.164 141.297C217.677 141.817 213.539 149.446 208.996 158.288C204.533 167.044 200.639 174.413 200.476 174.586C200.314 174.76 197.393 175.28 193.904 175.713C190.497 176.06 187.576 176.58 187.495 176.667C187.414 176.84 184.574 185.769 181.166 196.693L175 216.372L182.87 220.359C187.17 222.527 194.878 226.254 199.908 228.769C207.292 232.41 208.996 233.623 208.996 235.097C208.996 236.051 208.103 243.853 206.967 252.435C205.831 260.931 204.939 268.733 204.939 269.774C204.939 271.074 208.347 274.455 217.271 281.911C224.006 287.546 229.847 292.487 230.253 292.747C230.74 293.094 228.549 313.987 226.602 326.99C226.359 328.551 229.036 331.151 240.963 341.034L255.648 353.258L255.162 369.556C254.837 378.485 254.594 391.142 254.512 397.557L254.431 409.347L278.61 423.825L302.869 438.303L303.356 450.179C303.68 456.681 303.924 468.471 303.924 476.36C303.924 484.249 304.248 491.184 304.573 491.791C304.897 492.311 317.311 498.64 332.159 505.749C347.007 512.857 359.42 518.926 359.745 519.273C360.069 519.619 359.745 520.4 359.014 520.92C357.879 521.873 357.716 525.775 357.392 552.649L357.067 583.338L394.389 594.261L400.231 588.019L406.154 581.864V589.146C406.154 593.221 405.748 604.837 405.343 615.067C404.694 628.504 404.694 633.792 405.343 634.226C405.829 634.573 413.781 635.093 423.03 635.44C432.28 635.7 443.882 636.22 448.75 636.48L457.675 637L467.33 622.262C472.685 614.113 477.472 607.351 478.04 607.178C478.851 606.918 611.02 432.928 615.645 425.819C619.864 419.49 633.332 401.805 639.012 395.217C642.338 391.316 645.259 387.328 645.503 386.374C645.746 385.421 663.758 360.453 685.583 330.805L725.258 277.056L739.133 269.167C746.759 264.832 754.143 260.238 755.441 258.937C756.82 257.637 761.445 254.343 765.826 251.568C788.868 237.091 807.124 217.845 816.13 198.513C822.053 185.856 824 176.147 824 158.982C824 147.798 823.838 146.238 821.566 139.043C814.832 117.456 798.524 92.5758 783.108 80.0922C769.883 69.4291 758.767 65.528 740.431 65.0945C733.94 64.9211 727.611 65.0078 726.232 65.1812ZM746.516 68.1287C756.252 69.2557 762.256 70.9896 770.045 74.9774C785.785 82.953 802.986 103.239 813.534 126.126C820.268 140.95 821.16 144.678 821.16 159.589C821.16 174.326 819.781 182.128 815.562 192.965C807.286 213.771 787.084 235.531 761.445 250.962C756.577 253.822 755.846 253.649 755.846 249.315C755.846 243.506 747.49 222.353 737.834 203.801C730.451 189.671 694.346 125.172 688.991 116.416C682.581 106.186 675.847 97.864 671.304 94.483C666.841 91.2754 666.598 91.6222 676.334 86.0739C690.452 77.9249 709.113 71.0762 722.581 69.0823C734.751 67.1751 737.429 67.0884 746.516 68.1287ZM643.718 115.029C649.316 117.89 660.513 128.813 659.945 130.72C659.782 131.24 657.105 132.627 653.941 133.754C648.586 135.748 605.99 149.792 597.065 152.566L592.765 153.867L586.923 146.325C583.759 142.163 578.242 135.315 574.672 131.154C571.102 126.992 568.424 123.265 568.749 123.005C568.992 122.745 582.623 120.057 599.012 117.023C633.17 110.868 635.604 110.694 643.718 115.029ZM572.968 133.321C606.882 174.326 636.334 223.22 659.133 276.189C666.192 292.66 675.117 315.807 678.93 327.51L680.796 333.405L679.011 335.313C677.227 337.133 677.227 337.133 676.659 335.486C676.334 334.619 673.9 327.944 671.223 320.835C644.529 249.488 608.343 185.596 565.666 134.535C559.418 126.992 558.688 125.779 559.986 125.259C564.205 123.525 565.422 124.218 572.968 133.321ZM562.907 135.488C573.536 148.319 579.783 156.468 579.783 157.335C579.783 157.681 571.183 160.629 560.716 163.923L541.569 169.818L534.997 162.103C531.346 157.855 523.8 149.446 518.283 143.377L508.222 132.454L512.116 131.847C514.307 131.5 523.557 129.94 532.725 128.379C541.893 126.819 550.493 125.519 551.954 125.432C554.226 125.345 555.362 126.386 562.907 135.488ZM516.985 146.325C556.092 188.543 584.408 231.109 608.262 283.471C621.081 311.646 632.846 345.456 640.067 374.671L642.906 386.027L640.229 389.408C638.768 391.229 637.389 392.616 637.146 392.356C636.983 392.096 636.01 388.975 635.036 385.421C616.132 316.327 586.112 251.135 548.546 197.733C536.132 180.048 526.964 168.431 511.386 150.659C504.165 142.337 498.161 135.228 497.999 134.881C497.837 134.448 498.973 134.014 500.433 133.754C501.893 133.581 503.516 133.321 503.922 133.321C504.409 133.234 510.25 139.129 516.985 146.325ZM666.273 139.823C671.385 148.752 675.523 157.074 675.523 158.201C675.523 158.808 670.898 161.669 665.218 164.53C648.18 173.199 617.754 187.763 616.7 187.763C616.213 187.763 613.941 184.903 611.75 181.522C609.56 178.054 604.935 171.205 601.527 166.264C598.039 161.409 595.199 157.074 595.199 156.728C595.199 156.381 604.773 153.087 616.537 149.272C628.221 145.544 642.906 140.603 649.154 138.349C655.401 136.182 661.081 134.275 661.73 134.188C662.46 134.101 664.326 136.442 666.273 139.823ZM462.949 139.736C459.622 140.863 412.32 150.573 357.879 161.322C303.437 172.072 258.164 181.001 257.19 181.261C256.297 181.435 251.592 186.896 246.642 193.398C241.774 199.813 237.474 205.102 237.15 205.102C236.5 205.102 199.341 186.203 198.529 185.509C198.367 185.336 203.073 175.887 208.914 164.443L219.624 143.637L224.655 143.204C230.091 142.684 440.15 137.742 458.08 137.656H469.034L462.949 139.736ZM491.914 142.77C501.082 145.458 501.163 145.544 500.676 147.798C500.433 149.099 498.486 156.728 496.376 164.877L492.482 179.528L487.208 180.048C484.368 180.308 443.476 191.404 396.418 204.668C349.359 217.932 300.759 231.543 288.508 235.01C267.737 240.819 266.196 241.339 265.79 243.333C265.466 244.807 264.492 245.587 262.464 246.194C259.705 246.887 259.462 246.8 254.756 241.426C245.669 231.196 233.742 217.152 233.498 216.372C233.255 215.765 256.379 184.556 257.19 184.296C258.65 183.776 479.419 140.17 480.717 140.17C481.772 140.083 486.802 141.297 491.914 142.77ZM514.226 158.028C524.287 169.818 527.451 173.806 526.964 174.239C524.936 175.973 496.944 180.134 495.808 178.921C495.403 178.487 503.76 147.018 504.328 147.018C504.571 147.018 509.033 151.96 514.226 158.028ZM590.169 171.119C601.69 187.503 605.179 193.052 604.448 193.745C603.312 194.785 570.858 209.783 570.615 209.35C570.453 209.176 567.451 204.928 563.962 199.9C560.473 194.872 554.55 186.723 550.737 181.868C547.005 176.927 544.165 172.592 544.489 172.332C545.301 171.465 581.73 160.282 582.461 160.629C582.785 160.889 586.274 165.57 590.169 171.119ZM681.202 168.865C683.149 172.852 687.206 180.395 690.208 185.683C693.21 191.058 696.05 196.172 696.537 197.126C697.348 198.86 695.725 200.334 675.36 216.632C649.641 237.091 645.584 240.212 645.259 239.692C645.097 239.518 643.393 236.224 641.446 232.41C636.659 222.96 626.598 205.188 621.73 197.473C619.539 193.918 617.917 190.971 618.079 190.798C618.16 190.711 626.355 186.723 636.172 182.042C645.989 177.274 658.971 170.858 664.975 167.651C670.979 164.53 676.334 161.843 676.821 161.843C677.226 161.756 679.255 164.963 681.202 168.865ZM546.193 199.293C552.197 207.789 557.065 215.071 557.065 215.418C557.065 215.765 551.954 218.452 545.706 221.4L534.266 226.688L519.905 224.867C512.035 223.914 505.382 222.96 505.22 222.787C504.977 222.613 507.573 212.991 510.899 201.461L516.903 180.481L522.989 178.574L529.074 176.58L532.238 180.221C533.942 182.215 540.27 190.798 546.193 199.293ZM198.448 178.574C198.448 178.747 197.556 180.655 196.42 182.735L194.391 186.636L214.351 196.866C225.304 202.588 234.472 207.529 234.634 207.876C234.878 208.309 233.742 210.303 232.119 212.384L229.198 216.285L232.525 220.186C234.878 222.96 235.608 224.261 234.878 224.521C234.229 224.781 228.63 226.341 222.464 228.075L211.186 231.196L204.209 227.728C200.395 225.821 192.931 222.18 187.738 219.492L178.245 214.724L183.763 197.126C189.036 180.221 189.361 179.528 191.633 179.007C194.391 178.314 198.448 178.054 198.448 178.574ZM511.954 187.677C510.899 191.404 508.222 200.68 506.112 208.223L502.137 222.007L498.161 221.92C494.754 221.833 487.046 224.867 443.882 243.246C400.393 261.798 296.297 303.063 292.97 303.063C292.159 303.063 270.739 285.812 264.249 280.003C263.681 279.483 268.387 244.113 269.036 243.68C269.36 243.419 317.636 229.809 376.215 213.251C479.176 184.296 483.232 183.255 494.591 182.215C501.082 181.522 508.06 181.001 510.169 180.915L513.901 180.828L511.954 187.677ZM613.698 207.009C621.243 219.579 635.766 245.934 635.766 247.147C635.685 247.581 634.144 249.141 632.278 250.528C630.412 251.915 623.677 257.117 617.349 261.971L605.828 270.901L602.826 265.092C595.442 250.788 587.085 235.791 580.108 224.434L572.562 212.037L576.376 210.303C578.485 209.263 585.868 205.795 592.765 202.501C599.661 199.293 605.746 196.519 606.233 196.519C606.801 196.433 610.128 201.201 613.698 207.009ZM702.541 208.309C704.488 212.037 707.814 218.539 710.005 222.7L713.9 230.416L709.924 234.75C707.733 237.178 696.456 248.274 684.934 259.457L663.92 279.743L655.482 261.365C650.939 251.222 647.125 242.899 647.125 242.813C647.125 242.639 655.077 236.311 664.813 228.682C674.468 221.053 685.908 211.95 690.127 208.309C694.346 204.668 698.078 201.721 698.403 201.721C698.646 201.634 700.512 204.668 702.541 208.309ZM566.315 229.982C573.374 241.599 582.298 257.81 589.357 271.941L593.576 280.263L582.704 288.499L571.832 296.822L552.927 290.84C542.461 287.546 532.644 284.425 531.021 283.991L528.1 283.124L532.319 256.25C534.591 241.426 536.7 229.115 536.944 228.855C537.755 227.988 557.39 218.972 558.526 218.972C559.094 218.972 562.583 223.914 566.315 229.982ZM515.605 227.295C525.26 228.508 533.293 229.635 533.455 229.809C533.942 230.416 525.991 279.223 525.098 280.35C524.611 281.13 523.475 281.39 522.096 281.044C520.23 280.697 511.711 285.638 472.117 310.345C433.091 334.706 346.763 386.461 343.761 387.328C343.355 387.501 332.564 381.346 319.745 373.717L296.459 359.846L296.784 334.532C296.946 320.575 297.271 309.045 297.514 308.872C298.974 307.485 493.861 225.128 495.727 225.128C497.025 225.041 505.95 226.081 515.605 227.295ZM248.671 238.651C254.107 244.98 258.894 250.181 259.218 250.181C259.462 250.181 260.922 249.835 262.383 249.401C264.249 248.794 264.979 248.881 264.979 249.575C264.979 250.181 264.086 257.464 262.95 265.786C261.084 279.83 261.084 281.044 262.301 281.997C263.032 282.604 263.518 283.211 263.275 283.384C262.707 283.991 237.312 293.527 236.5 293.527C236.014 293.527 229.279 288.239 221.49 281.737C207.697 270.207 207.373 269.86 207.779 267.173C208.022 265.699 209.077 257.724 210.132 249.488C211.186 241.252 212.241 234.317 212.403 234.143C213.052 233.45 236.176 226.948 237.393 227.035C238.042 227.121 243.154 232.41 248.671 238.651ZM717.713 239.518C722.094 249.748 725.096 259.978 725.583 265.786L725.989 271.421L704.731 300.203C692.967 316.067 683.149 329.071 682.825 329.071C682.581 329.071 680.715 324.476 678.768 318.841C676.821 313.293 672.926 302.89 670.168 295.695L664.975 282.691L667.247 280.437C668.464 279.223 676.74 271.248 685.665 262.665C694.508 254.169 704.731 244.113 708.382 240.472C711.952 236.744 714.954 233.797 715.036 233.71C715.198 233.71 716.415 236.311 717.713 239.518ZM647.207 270.554C654.833 286.939 655.158 287.892 653.86 289.193C647.207 295.781 625.057 316.241 624.894 315.98C624.732 315.807 623.434 312.513 621.973 308.698C620.513 304.884 616.619 295.434 613.211 287.632C607.369 274.108 607.207 273.415 608.667 272.374C609.479 271.681 616.213 266.479 623.596 260.758C635.685 251.308 637.065 250.441 638.119 251.742C638.687 252.522 642.825 261.018 647.207 270.554ZM601.446 298.035C605.016 306.271 609.154 316.241 610.615 320.055L613.292 327.077L609.803 330.458C607.937 332.278 605.746 334.272 605.016 334.879C603.556 336.093 567.613 336.526 567.613 335.313C567.613 334.966 569.317 326.383 571.345 316.24L575.159 297.862L584.57 290.58C589.763 286.505 594.225 283.211 594.469 283.211C594.793 283.124 597.876 289.886 601.446 298.035ZM546.437 291.793C559.986 296.128 571.264 299.769 571.507 300.029C571.832 300.289 567.126 324.129 565.098 332.712L564.286 336.006H544.976L478.608 401.285C442.097 437.175 410.941 467.518 409.399 468.818L406.56 471.159L379.055 457.982C359.096 448.445 351.388 444.284 350.982 443.071C350.658 442.117 350.171 429.807 349.927 415.763L349.522 390.189L434.389 337.133C481.123 308.005 519.905 284.078 520.555 284.078C521.204 283.991 532.887 287.546 546.437 291.793ZM279.34 296.215C292.24 307.051 291.916 306.878 297.19 305.144C298.001 304.884 297.676 305.317 296.459 306.098L294.188 307.485V337.567L285.912 340.774C281.287 342.508 273.174 345.629 267.737 347.71L257.92 351.437L243.803 339.734C236.014 333.319 229.604 327.944 229.442 327.77C229.198 327.51 232.038 304.104 233.012 298.122C233.417 295.868 233.742 295.521 234.878 296.215C235.851 296.908 239.665 295.695 250.375 291.533C258.164 288.412 265.06 285.898 265.709 285.812C266.277 285.725 272.443 290.406 279.34 296.215ZM659.701 298.729C666.517 315.287 675.36 339.907 674.792 340.774C658.647 362.707 645.746 379.959 645.178 380.219C644.772 380.479 642.744 374.237 640.635 366.348C636.416 350.31 632.764 338.434 628.708 326.99C627.247 322.742 626.274 318.928 626.598 318.668C633.414 311.993 656.294 290.927 656.456 291.1C656.537 291.273 657.997 294.654 659.701 298.729ZM617.268 337.74C620.675 347.276 628.789 373.024 632.034 384.727L634.793 394.957L627.085 405.446C622.866 411.168 619.215 415.676 618.971 415.503C618.809 415.242 620.432 408.914 622.785 401.459C625.057 393.916 626.76 387.588 626.517 387.414C626.355 387.241 619.702 386.461 611.832 385.854C603.88 385.16 597.308 384.467 597.146 384.294C597.065 384.207 599.093 373.63 601.69 360.8L606.396 337.48L609.965 334.186C611.832 332.365 613.779 330.978 614.185 331.065C614.59 331.238 615.97 334.186 617.268 337.74ZM603.069 340.254C602.907 341.121 600.716 351.524 598.363 363.314L594.063 384.814L516.822 462.49C474.308 505.228 439.501 540.685 439.501 541.206C439.419 541.812 439.176 542.333 438.851 542.333C438.446 542.419 430.981 540.339 422.057 537.825L405.911 533.23L406.479 515.111C406.722 505.142 406.965 492.138 406.965 486.33V475.667L544.976 339.907L562.177 339.474C601.771 338.347 603.556 338.434 603.069 340.254ZM294.188 351.871V361.754L317.96 375.971C335.648 386.634 342.301 390.189 344.329 390.102L346.925 390.015V398.771L346.844 407.527L325.343 420.964C313.417 428.333 303.437 434.488 303.112 434.661C302.788 434.748 292.565 428.853 280.313 421.484L258.082 408.134V356.639L275.121 349.443C284.532 345.456 292.646 342.161 293.214 342.161C293.944 342.075 294.188 344.589 294.188 351.871ZM608.83 388.541C614.266 388.802 619.783 389.322 621 389.668L623.272 390.189L612.562 425.732L545.382 514.591C508.384 563.485 477.715 603.537 477.228 603.624C476.742 603.71 468.304 601.543 458.486 598.856L440.636 593.827L440.961 578.31C441.042 569.727 441.448 557.937 441.772 552.215L442.259 541.639L518.932 464.397C577.998 404.84 596.01 387.241 597.227 387.501C598.12 387.761 603.312 388.195 608.83 388.541ZM347.006 412.035C347.088 412.468 347.331 420.271 347.656 429.547L348.142 446.365L376.377 459.889L404.531 473.326V479.915C404.531 485.203 404.207 486.85 403.152 487.89C402.341 488.67 392.929 495.606 382.3 503.321L362.909 517.279L307.413 490.751L306.845 479.048C306.601 472.632 306.277 460.409 306.196 451.826L305.952 436.309L325.83 423.912C336.783 417.063 345.952 411.428 346.357 411.428C346.682 411.428 347.006 411.688 347.006 412.035ZM407.614 536.524C409.724 537.218 417.432 539.472 424.734 541.552L438.04 545.367L424.734 559.064C417.432 566.606 407.371 576.923 402.422 581.864L393.335 590.88L377.027 586.112C368.021 583.511 360.475 581.344 360.313 581.344C360.069 581.344 359.907 568.774 359.907 553.342C359.907 532.883 360.232 524.908 360.962 523.434C361.449 522.307 371.266 514.678 382.625 506.442L403.314 491.531L403.558 513.464L403.72 535.311L407.614 536.524ZM438.284 570.681C437.959 581.604 437.553 591.66 437.31 593.134L436.823 595.821L455.403 600.85C465.545 603.624 473.983 606.051 474.145 606.138C474.308 606.224 470.332 612.64 465.22 620.355L456.052 634.313L453.212 633.879C451.671 633.619 443.071 633.186 434.146 632.925C425.221 632.665 415.566 632.232 412.726 631.885L407.533 631.365L408.182 612.206C408.507 601.716 408.994 590.013 409.237 586.372L409.805 579.697L424.004 565.306C431.793 557.417 438.365 551.002 438.527 551.002C438.689 551.002 438.608 559.844 438.284 570.681Z" stroke="#FDFEF7" stroke-width="20" mask="url(#path-1-outside-1_206_7)"/>
<path d="M713 147.5C693 107.9 675 93.6664 668.5 91.4997C692.5 77.4997 721 66.9997 752.5 72.9997C784 78.9997 797 104.5 810.5 129C824 153.5 818 181 807 202.5C798.2 219.7 771.333 239.666 759 247.5C757.833 241.833 754.5 228.3 750.5 219.5C745.5 208.5 738 197 713 147.5Z" fill="#CCCCCC"/>
<path d="M52 779.625V679H80.75V693.375H95.125V707.75H109.5V693.375H123.875V679H152.625V779.625H123.875V722.125H109.5V750.875H95.125V722.125H80.75V779.625H52ZM226.225 779.625V765.25H254.975V693.375H226.225V679H312.475V693.375H283.725V765.25H312.475V779.625H226.225ZM386.075 779.625V765.25H371.7V750.875H400.45V765.25H443.575V736.5H386.075V722.125H371.7V693.375H386.075V679H457.95V693.375H472.325V707.75H443.575V693.375H400.45V722.125H457.95V736.5H472.325V765.25H457.95V779.625H386.075ZM531.55 779.625V707.75H545.925V693.375H560.3V679H603.425V693.375H617.8V707.75H632.175V779.625H603.425V750.875H560.3V779.625H531.55ZM560.3 736.5H603.425V707.75H589.05V693.375H574.675V707.75H560.3V736.5ZM734.525 779.625V693.375H705.775V679H792.025V693.375H763.275V779.625H734.525ZM865.625 779.625V765.25H851.25V693.375H865.625V679H937.5V693.375H951.875V765.25H937.5V779.625H865.625ZM880 765.25H923.125V693.375H880V765.25Z" fill="white"/>
<path d="M177.9 902H187.656V840.477H177.9V902ZM192.227 902H197.148C204.355 902 209.6 899.393 212.881 894.178C214.697 891.307 215.605 888.084 215.605 884.51C215.547 878.709 213.496 874.256 209.453 871.15C212.734 868.748 214.668 865.145 215.254 860.34C215.371 859.52 215.43 858.699 215.43 857.879C215.43 852.312 213.496 847.859 209.629 844.52C206.348 841.824 202.158 840.477 197.061 840.477H192.227V849.09H195.83C200.107 849.09 203.096 850.848 204.795 854.363C205.381 855.711 205.674 857.088 205.674 858.494C205.674 862.42 204.062 864.998 200.84 866.229C199.609 866.697 198.262 866.932 196.797 866.932H192.227V875.457H196.797C201.191 875.457 204.004 877.244 205.234 880.818C205.586 881.814 205.762 882.84 205.762 883.895C205.762 887.527 204.238 890.193 201.191 891.893C199.434 892.889 197.354 893.387 194.951 893.387H192.227V902ZM256.33 902L267.932 850.408H269.25L273.293 869.041L265.998 902H256.33ZM272.59 893.211L274.612 883.631H281.204L271.711 840.477H281.379L295.53 902H285.774L283.84 893.211H272.59ZM336.167 902V840.477H346.011V902H336.167ZM350.581 902V892.244C357.319 892.244 360.747 889.783 360.864 884.861C360.864 884.803 360.864 884.744 360.864 884.686V857.791C360.864 854.275 358.901 851.961 354.975 850.848C353.628 850.438 352.163 850.232 350.581 850.232V840.477C358.081 840.477 363.677 842.938 367.368 847.859C369.536 850.789 370.62 854.1 370.62 857.791V884.686C370.62 892.83 366.782 898.162 359.106 900.682C356.47 901.561 353.628 902 350.581 902ZM412.839 902V860.34H413.63L422.683 882.049V902H412.839ZM412.839 846.805V840.477H420.661L439.294 885.74L451.423 858.318H452.302V880.643L442.81 902H435.779L412.839 846.805ZM456.784 902V840.477H466.628V902H456.784ZM509.111 902V840.477H518.955V902H509.111ZM561.438 902V856.121H562.141L571.281 870.799V902H561.438ZM561.438 846.805V840.477H569.611L600.549 890.135V902H595.803L561.438 846.805ZM590.705 866.141V840.477H600.549V880.818H599.846L590.705 866.141ZM640.746 850.057V840.477H678.803V850.057H664.741V902H654.897V850.057H640.746ZM718.825 884.861V855.945C718.825 852.84 720.143 849.676 722.78 846.453C726.296 842.234 730.749 840.096 736.139 840.037V849.793C733.093 849.852 730.807 851.492 729.284 854.715C728.815 855.77 728.581 856.648 728.581 857.352V884.861C728.581 888.025 730.221 890.369 733.503 891.893C734.499 892.361 735.348 892.596 736.052 892.596V902.439C732.712 902.439 729.372 901.238 726.032 898.836C721.286 895.32 718.884 890.662 718.825 884.861ZM740.886 902.439V892.596C742.409 892.596 743.991 891.893 745.632 890.486C747.389 888.904 748.298 887.029 748.356 884.861V857.352C748.356 855.594 747.595 853.895 746.071 852.254C744.606 850.672 742.878 849.852 740.886 849.793V840.037C746.804 840.037 751.55 842.586 755.124 847.684C757.175 850.613 758.2 853.367 758.2 855.945V884.861C758.2 891.365 755.3 896.346 749.499 899.803C746.452 901.561 743.581 902.439 740.886 902.439ZM800.331 902V856.121H801.034L810.175 870.799V902H800.331ZM800.331 846.805V840.477H808.505L839.443 890.135V902H834.696L800.331 846.805ZM829.599 866.141V840.477H839.443V880.818H838.739L829.599 866.141Z" fill="white"/>
</svg>
