<svg width="661" height="583" viewBox="0 0 661 583" fill="none" xmlns="http://www.w3.org/2000/svg">
<path d="M540.5 88.4999C520.5 48.8999 507.5 33.3909 501 31.2242C525 17.2242 558 2.5 589.5 8.5C621 14.5 632 39.4999 645.5 63.9999C659 88.4999 650.5 120.724 639.5 142.224C630.7 159.424 601.833 183.667 589.5 191.5C588.333 185.833 582 167.3 578 158.5C573 147.5 565.5 138 540.5 88.4999Z" fill="#CCCCCC"/>
<path d="M558.232 5.18121C539.165 8.21542 519.774 15.4976 502.087 26.4207C497.462 29.1948 493.324 31.5355 492.837 31.5355C492.35 31.5355 486.184 35.1765 479.207 39.6845L466.468 47.9202L439.369 52.775C424.521 55.4624 390.039 61.3574 362.778 65.8654L313.204 74.1011L182.171 77.222C89.3522 79.3893 50.8941 80.603 50.1639 81.2965C49.6771 81.8167 45.5392 89.4456 40.9956 98.2881C36.5332 107.044 32.6387 114.413 32.4764 114.586C32.3142 114.76 29.3933 115.28 25.9045 115.713C22.4968 116.06 19.5759 116.58 19.4948 116.667C19.4137 116.84 16.5739 125.769 13.1663 136.693L7 156.372L14.8701 160.359C19.1703 162.527 26.8781 166.254 31.9085 168.769C39.2918 172.41 40.9956 173.623 40.9956 175.097C40.9956 176.051 40.1031 183.853 38.9672 192.435C37.8314 200.931 36.9389 208.733 36.9389 209.774C36.9389 211.074 40.3465 214.455 49.2714 221.911C56.0056 227.546 61.8474 232.487 62.253 232.747C62.7398 233.094 60.5492 253.987 58.6019 266.99C58.3585 268.551 61.036 271.151 72.9629 281.034L87.6483 293.258L87.1615 309.556C86.837 318.485 86.5936 331.142 86.5124 337.557L86.4313 349.347L110.61 363.825L134.869 378.303L135.356 390.179C135.68 396.681 135.924 408.471 135.924 416.36C135.924 424.249 136.248 431.184 136.573 431.791C136.897 432.311 149.311 438.64 164.159 445.749C179.007 452.857 191.42 458.926 191.745 459.273C192.069 459.619 191.745 460.4 191.014 460.92C189.879 461.873 189.716 465.775 189.392 492.649L189.067 523.338L226.389 534.261L232.231 528.019L238.154 521.864V529.146C238.154 533.221 237.748 544.837 237.343 555.067C236.694 568.504 236.694 573.792 237.343 574.226C237.829 574.573 245.781 575.093 255.03 575.44C264.28 575.7 275.882 576.22 280.75 576.48L289.675 577L299.33 562.262C304.685 554.113 309.472 547.351 310.04 547.178C310.851 546.918 443.02 372.928 447.645 365.819C451.864 359.49 465.332 341.805 471.012 335.217C474.338 331.316 477.259 327.328 477.503 326.374C477.746 325.421 495.758 300.453 517.583 270.805L557.258 217.056L571.133 209.167C578.759 204.832 586.143 200.238 587.441 198.937C588.82 197.637 593.445 194.343 597.826 191.568C620.868 177.091 639.124 157.845 648.13 138.513C654.053 125.856 656 116.147 656 98.9817C656 87.7984 655.838 86.238 653.566 79.0426C646.832 57.4564 630.524 32.5758 615.108 20.0922C601.883 9.42914 590.767 5.52796 572.431 5.0945C565.94 4.92112 559.611 5.00783 558.232 5.18121ZM578.516 8.12873C588.252 9.25572 594.256 10.9896 602.045 14.9774C617.785 22.953 634.986 43.2389 645.534 66.1255C652.268 80.9498 653.16 84.6776 653.16 99.5885C653.16 114.326 651.781 122.128 647.562 132.965C639.286 153.771 619.084 175.531 593.445 190.962C588.577 193.822 587.846 193.649 587.846 189.315C587.846 183.506 579.49 162.353 569.834 143.801C562.451 129.671 526.346 65.1719 520.991 56.416C514.581 46.1864 507.847 37.864 503.304 34.483C498.841 31.2754 498.598 31.6222 508.334 26.0739C522.452 17.9249 541.113 11.0762 554.581 9.08234C566.751 7.17512 569.429 7.08843 578.516 8.12873ZM475.718 55.029C481.316 57.8898 492.513 68.8129 491.945 70.7202C491.782 71.2403 489.105 72.6274 485.941 73.7544C480.586 75.7483 437.99 89.7923 429.065 92.5665L424.765 93.8668L418.923 86.3247C415.759 82.1635 410.242 75.3148 406.672 71.1536C403.102 66.9924 400.424 63.2647 400.749 63.0046C400.992 62.7445 414.623 60.0571 431.012 57.0229C465.17 50.8678 467.604 50.6944 475.718 55.029ZM404.968 73.3209C438.882 114.326 468.334 163.22 491.133 216.189C498.192 232.66 507.117 255.807 510.93 267.51L512.796 273.405L511.011 275.313C509.227 277.133 509.227 277.133 508.659 275.486C508.334 274.619 505.9 267.944 503.223 260.835C476.529 189.488 440.343 125.596 397.666 74.5346C391.418 66.9924 390.688 65.7788 391.986 65.2586C396.205 63.5248 397.422 64.2183 404.968 73.3209ZM394.907 75.4882C405.536 88.3185 411.783 96.4676 411.783 97.3345C411.783 97.6813 403.183 100.629 392.716 103.923L373.569 109.818L366.997 102.103C363.346 97.8547 355.8 89.4456 350.283 83.3772L340.222 72.454L344.116 71.8472C346.307 71.5004 355.557 69.9399 364.725 68.3795C373.893 66.819 382.493 65.5187 383.954 65.432C386.226 65.3453 387.362 66.3856 394.907 75.4882ZM348.985 86.3247C388.092 128.543 416.408 171.109 440.262 223.471C453.081 251.646 464.846 285.456 472.067 314.671L474.906 326.027L472.229 329.408C470.768 331.229 469.389 332.616 469.146 332.356C468.983 332.096 468.01 328.975 467.036 325.421C448.132 256.327 418.112 191.135 380.546 137.733C368.132 120.048 358.964 108.431 343.386 90.6593C336.165 82.3369 330.161 75.2281 329.999 74.8814C329.837 74.4479 330.973 74.0145 332.433 73.7544C333.893 73.581 335.516 73.3209 335.922 73.3209C336.409 73.2342 342.25 79.1293 348.985 86.3247ZM498.273 79.8228C503.385 88.752 507.523 97.0744 507.523 98.2014C507.523 98.8083 502.898 101.669 497.218 104.53C480.18 113.199 449.754 127.763 448.7 127.763C448.213 127.763 445.941 124.903 443.75 121.522C441.56 118.054 436.935 111.205 433.527 106.264C430.039 101.409 427.199 97.0744 427.199 96.7277C427.199 96.3809 436.773 93.0866 448.537 89.2722C460.221 85.5444 474.906 80.603 481.154 78.349C487.401 76.1817 493.081 74.2745 493.73 74.1878C494.46 74.1011 496.326 76.4418 498.273 79.8228ZM294.949 79.7361C291.622 80.8631 244.32 90.5726 189.879 101.322C135.437 112.072 90.1635 121.001 89.1899 121.261C88.2974 121.435 83.5916 126.896 78.6423 133.398C73.7742 139.813 69.4741 145.102 69.1495 145.102C68.5004 145.102 31.3405 126.203 30.5292 125.509C30.3669 125.336 35.0728 115.887 40.9145 104.443L51.6243 83.6372L56.6547 83.2038C62.0908 82.6836 272.15 77.7422 290.08 77.6555H301.034L294.949 79.7361ZM323.914 82.7703C333.082 85.4577 333.163 85.5444 332.676 87.7984C332.433 89.0988 330.486 96.7277 328.376 104.877L324.482 119.528L319.208 120.048C316.368 120.308 275.476 131.404 228.418 144.668C181.359 157.932 132.759 171.543 120.508 175.01C99.7375 180.819 98.1959 181.339 97.7902 183.333C97.4657 184.807 96.4921 185.587 94.4637 186.194C91.7051 186.887 91.4617 186.8 86.7558 181.426C77.6687 171.196 65.7418 157.152 65.4984 156.372C65.255 155.765 88.3786 124.556 89.1899 124.296C90.6503 123.776 311.419 80.1696 312.717 80.1696C313.772 80.0829 318.802 81.2965 323.914 82.7703ZM346.226 98.0281C356.287 109.818 359.451 113.806 358.964 114.239C356.936 115.973 328.944 120.134 327.808 118.921C327.403 118.487 335.76 87.0182 336.328 87.0182C336.571 87.0182 341.033 91.9596 346.226 98.0281ZM422.169 111.119C433.69 127.503 437.179 133.052 436.448 133.745C435.312 134.785 402.858 149.783 402.615 149.35C402.453 149.176 399.451 144.928 395.962 139.9C392.473 134.872 386.55 126.723 382.737 121.868C379.005 116.927 376.165 112.592 376.489 112.332C377.301 111.465 413.73 100.282 414.461 100.629C414.785 100.889 418.274 105.57 422.169 111.119ZM513.202 108.865C515.149 112.852 519.206 120.395 522.208 125.683C525.21 131.058 528.05 136.172 528.537 137.126C529.348 138.86 527.725 140.334 507.36 156.632C481.641 177.091 477.584 180.212 477.259 179.692C477.097 179.518 475.393 176.224 473.446 172.41C468.659 162.96 458.598 145.188 453.73 137.473C451.539 133.918 449.917 130.971 450.079 130.798C450.16 130.711 458.355 126.723 468.172 122.042C477.989 117.274 490.971 110.858 496.975 107.651C502.979 104.53 508.334 101.843 508.821 101.843C509.226 101.756 511.255 104.963 513.202 108.865ZM378.193 139.293C384.197 147.789 389.065 155.071 389.065 155.418C389.065 155.765 383.954 158.452 377.706 161.4L366.266 166.688L351.905 164.867C344.035 163.914 337.382 162.96 337.22 162.787C336.977 162.613 339.573 152.991 342.899 141.461L348.903 120.481L354.989 118.574L361.074 116.58L364.238 120.221C365.942 122.215 372.27 130.798 378.193 139.293ZM30.4481 118.574C30.4481 118.747 29.5556 120.655 28.4197 122.735L26.3913 126.636L46.3505 136.866C57.3038 142.588 66.4721 147.529 66.6343 147.876C66.8777 148.309 65.7418 150.303 64.1191 152.384L61.1983 156.285L64.5248 160.186C66.8777 162.96 67.6079 164.261 66.8777 164.521C66.2286 164.781 60.6303 166.341 54.4641 168.075L43.1863 171.196L36.2087 167.728C32.3953 165.821 24.9309 162.18 19.7382 159.492L10.2454 154.724L15.7626 137.126C21.0364 120.221 21.3609 119.528 23.6327 119.007C26.3913 118.314 30.4481 118.054 30.4481 118.574ZM343.954 127.677C342.899 131.404 340.222 140.68 338.112 148.223L334.137 162.007L330.161 161.92C326.754 161.833 319.046 164.867 275.882 183.246C232.393 201.798 128.297 243.063 124.97 243.063C124.159 243.063 102.739 225.812 96.2487 220.003C95.6807 219.483 100.387 184.113 101.036 183.68C101.36 183.419 149.636 169.809 208.215 153.251C311.176 124.296 315.232 123.255 326.591 122.215C333.082 121.522 340.06 121.001 342.169 120.915L345.901 120.828L343.954 127.677ZM445.698 147.009C453.243 159.579 467.766 185.934 467.766 187.147C467.685 187.581 466.144 189.141 464.278 190.528C462.412 191.915 455.677 197.117 449.349 201.971L437.828 210.901L434.826 205.092C427.442 190.788 419.085 175.791 412.108 164.434L404.562 152.037L408.376 150.303C410.485 149.263 417.868 145.795 424.765 142.501C431.661 139.293 437.746 136.519 438.233 136.519C438.801 136.433 442.128 141.201 445.698 147.009ZM534.541 148.309C536.488 152.037 539.814 158.539 542.005 162.7L545.9 170.416L541.924 174.75C539.733 177.178 528.456 188.274 516.934 199.457L495.92 219.743L487.482 201.365C482.939 191.222 479.125 182.899 479.125 182.813C479.125 182.639 487.077 176.311 496.813 168.682C506.468 161.053 517.908 151.95 522.127 148.309C526.346 144.668 530.078 141.721 530.403 141.721C530.646 141.634 532.512 144.668 534.541 148.309ZM398.315 169.982C405.374 181.599 414.298 197.81 421.357 211.941L425.576 220.263L414.704 228.499L403.832 236.822L384.927 230.84C374.461 227.546 364.644 224.425 363.021 223.991L360.1 223.124L364.319 196.25C366.591 181.426 368.7 169.115 368.944 168.855C369.755 167.988 389.39 158.972 390.526 158.972C391.094 158.972 394.583 163.914 398.315 169.982ZM347.605 167.295C357.26 168.508 365.293 169.635 365.455 169.809C365.942 170.416 357.991 219.223 357.098 220.35C356.611 221.13 355.475 221.39 354.096 221.044C352.23 220.697 343.711 225.638 304.117 250.345C265.091 274.706 178.763 326.461 175.761 327.328C175.355 327.501 164.564 321.346 151.745 313.717L128.459 299.846L128.784 274.532C128.946 260.575 129.271 249.045 129.514 248.872C130.974 247.485 325.861 165.128 327.727 165.128C329.025 165.041 337.95 166.081 347.605 167.295ZM80.6707 178.651C86.1068 184.98 90.8937 190.181 91.2183 190.181C91.4617 190.181 92.9221 189.835 94.3825 189.401C96.2487 188.794 96.9789 188.881 96.9789 189.575C96.9789 190.181 96.0864 197.464 94.9505 205.786C93.0844 219.83 93.0844 221.044 94.3014 221.997C95.0316 222.604 95.5184 223.211 95.275 223.384C94.7071 223.991 69.3118 233.527 68.5004 233.527C68.0136 233.527 61.2794 228.239 53.4904 221.737C39.6975 210.207 39.3729 209.86 39.7786 207.173C40.022 205.699 41.0768 197.724 42.1315 189.488C43.1863 181.252 44.241 174.317 44.4033 174.143C45.0524 173.45 68.1759 166.948 69.3929 167.035C70.042 167.121 75.1535 172.41 80.6707 178.651ZM549.713 179.518C554.094 189.748 557.096 199.978 557.583 205.786L557.989 211.421L536.731 240.203C524.967 256.067 515.149 269.071 514.825 269.071C514.581 269.071 512.715 264.476 510.768 258.841C508.821 253.293 504.926 242.89 502.168 235.695L496.975 222.691L499.247 220.437C500.464 219.223 508.74 211.248 517.665 202.665C526.508 194.169 536.731 184.113 540.382 180.472C543.952 176.744 546.954 173.797 547.036 173.71C547.198 173.71 548.415 176.311 549.713 179.518ZM479.207 210.554C486.833 226.939 487.158 227.892 485.86 229.193C479.207 235.781 457.057 256.241 456.894 255.98C456.732 255.807 455.434 252.513 453.973 248.698C452.513 244.884 448.619 235.434 445.211 227.632C439.369 214.108 439.207 213.415 440.667 212.374C441.479 211.681 448.213 206.479 455.596 200.758C467.685 191.308 469.065 190.441 470.119 191.742C470.687 192.522 474.825 201.018 479.207 210.554ZM433.446 238.035C437.016 246.271 441.154 256.241 442.615 260.055L445.292 267.077L441.803 270.458C439.937 272.278 437.746 274.272 437.016 274.879C435.556 276.093 399.613 276.526 399.613 275.313C399.613 274.966 401.317 266.383 403.345 256.24L407.159 237.862L416.57 230.58C421.763 226.505 426.225 223.211 426.469 223.211C426.793 223.124 429.876 229.886 433.446 238.035ZM378.437 231.793C391.986 236.128 403.264 239.769 403.507 240.029C403.832 240.289 399.126 264.129 397.098 272.712L396.286 276.006H376.976L310.608 341.285C274.097 377.175 242.941 407.518 241.399 408.818L238.56 411.159L211.055 397.982C191.096 388.445 183.388 384.284 182.982 383.071C182.658 382.117 182.171 369.807 181.927 355.763L181.522 330.189L266.389 277.133C313.123 248.005 351.905 224.078 352.555 224.078C353.204 223.991 364.887 227.546 378.437 231.793ZM111.34 236.215C124.24 247.051 123.916 246.878 129.19 245.144C130.001 244.884 129.676 245.317 128.459 246.098L126.188 247.485V277.567L117.912 280.774C113.287 282.508 105.174 285.629 99.7375 287.71L89.9201 291.437L75.8026 279.734C68.0136 273.319 61.6039 267.944 61.4417 267.77C61.1983 267.51 64.038 244.104 65.0116 238.122C65.4173 235.868 65.7418 235.521 66.8777 236.215C67.8514 236.908 71.6647 235.695 82.3745 231.533C90.1635 228.412 97.06 225.898 97.7091 225.812C98.277 225.725 104.443 230.406 111.34 236.215ZM491.701 238.729C498.517 255.287 507.36 279.907 506.792 280.774C490.647 302.707 477.746 319.959 477.178 320.219C476.772 320.479 474.744 314.237 472.635 306.348C468.416 290.31 464.764 278.434 460.708 266.99C459.247 262.742 458.274 258.928 458.598 258.668C465.414 251.993 488.294 230.927 488.456 231.1C488.537 231.273 489.997 234.654 491.701 238.729ZM449.268 277.74C452.675 287.276 460.789 313.024 464.034 324.727L466.793 334.957L459.085 345.446C454.866 351.168 451.215 355.676 450.971 355.503C450.809 355.242 452.432 348.914 454.785 341.459C457.057 333.916 458.76 327.588 458.517 327.414C458.355 327.241 451.702 326.461 443.832 325.854C435.88 325.16 429.308 324.467 429.146 324.294C429.065 324.207 431.093 313.63 433.69 300.8L438.396 277.48L441.965 274.186C443.832 272.365 445.779 270.978 446.185 271.065C446.59 271.238 447.97 274.186 449.268 277.74ZM435.069 280.254C434.907 281.121 432.716 291.524 430.363 303.314L426.063 324.814L348.822 402.49C306.308 445.228 271.501 480.685 271.501 481.206C271.419 481.812 271.176 482.333 270.851 482.333C270.446 482.419 262.981 480.339 254.057 477.825L237.911 473.23L238.479 455.111C238.722 445.142 238.965 432.138 238.965 426.33V415.667L376.976 279.907L394.177 279.474C433.771 278.347 435.556 278.434 435.069 280.254ZM126.188 291.871V301.754L149.96 315.971C167.648 326.634 174.301 330.189 176.329 330.102L178.925 330.015V338.771L178.844 347.527L157.343 360.964C145.417 368.333 135.437 374.488 135.112 374.661C134.788 374.748 124.565 368.853 112.313 361.484L90.0824 348.134V296.639L107.121 289.443C116.532 285.456 124.646 282.161 125.214 282.161C125.944 282.075 126.188 284.589 126.188 291.871ZM440.83 328.541C446.266 328.802 451.783 329.322 453 329.668L455.272 330.189L444.562 365.732L377.382 454.591C340.384 503.485 309.715 543.537 309.228 543.624C308.742 543.71 300.304 541.543 290.486 538.856L272.636 533.827L272.961 518.31C273.042 509.727 273.448 497.937 273.772 492.215L274.259 481.639L350.932 404.397C409.998 344.84 428.01 327.241 429.227 327.501C430.12 327.761 435.312 328.195 440.83 328.541ZM179.006 352.035C179.088 352.468 179.331 360.271 179.656 369.547L180.142 386.365L208.377 399.889L236.531 413.326V419.915C236.531 425.203 236.207 426.85 235.152 427.89C234.341 428.67 224.929 435.606 214.3 443.321L194.909 457.279L139.413 430.751L138.845 419.048C138.601 412.632 138.277 400.409 138.196 391.826L137.952 376.309L157.83 363.912C168.783 357.063 177.952 351.428 178.357 351.428C178.682 351.428 179.006 351.688 179.006 352.035ZM239.614 476.524C241.724 477.218 249.432 479.472 256.734 481.552L270.04 485.367L256.734 499.064C249.432 506.606 239.371 516.923 234.422 521.864L225.335 530.88L209.027 526.112C200.021 523.511 192.475 521.344 192.313 521.344C192.069 521.344 191.907 508.774 191.907 493.342C191.907 472.883 192.232 464.908 192.962 463.434C193.449 462.307 203.266 454.678 214.625 446.442L235.314 431.531L235.558 453.464L235.72 475.311L239.614 476.524ZM270.284 510.681C269.959 521.604 269.553 531.66 269.31 533.134L268.823 535.821L287.403 540.85C297.545 543.624 305.983 546.051 306.145 546.138C306.308 546.224 302.332 552.64 297.22 560.355L288.052 574.313L285.212 573.879C283.671 573.619 275.071 573.186 266.146 572.925C257.221 572.665 247.566 572.232 244.726 571.885L239.533 571.365L240.182 552.206C240.507 541.716 240.994 530.013 241.237 526.372L241.805 519.697L256.004 505.306C263.793 497.417 270.365 491.002 270.527 491.002C270.689 491.002 270.608 499.844 270.284 510.681Z" fill="#989898" stroke="#F47500" stroke-width="10"/>
</svg>
